<svg xmlns="http://www.w3.org/2000/svg" xmlns:xlink="http://www.w3.org/1999/xlink" viewBox="0 0 114.06 198.47"><defs><style>.cls-1{fill:url(#Naamloos_verloop_57);}.cls-2{fill:url(#Naamloos_verloop_57-2);}.cls-3{fill:url(#Naamloos_verloop_57-3);}</style><linearGradient id="Naamloos_verloop_57" x1="23.44" y1="121.89" x2="64.72" y2="169.53" gradientUnits="userSpaceOnUse"><stop offset="0" stop-color="#dc678c"/><stop offset="1" stop-color="#3a245c"/></linearGradient><linearGradient id="Naamloos_verloop_57-2" x1="87.17" y1="168.31" x2="134.38" y2="168.31" xlink:href="#Naamloos_verloop_57"/><linearGradient id="Naamloos_verloop_57-3" x1="0" y1="99.23" x2="114.06" y2="99.23" xlink:href="#Naamloos_verloop_57"/></defs><title>logo kleur</title><g id="Laag_2" data-name="Laag 2"><g id="Laag_1-2" data-name="Laag 1"><path class="cls-1" d="M57,114.06v0A27.33,27.33,0,0,0,29.7,141.44H0A56.89,56.89,0,0,1,18.67,99.23,56.84,56.84,0,0,0,57,114.06Z"/><path class="cls-2" d="M84.86,138.15H114a0,0,0,0,1,0,0V194a4.49,4.49,0,0,1-4.49,4.49H89.35A4.49,4.49,0,0,1,84.86,194V138.15A0,0,0,0,1,84.86,138.15Z"/><path class="cls-3" d="M100,104A57,57,0,1,1,0,141.44H29.7A27.33,27.33,0,1,0,57,114.11v0A57,57,0,1,1,113.86,52.2,4.48,4.48,0,0,1,109.38,57H88.53a4.52,4.52,0,0,1-4.45-4A27.33,27.33,0,1,0,57,84.36v0A56.83,56.83,0,0,1,95.39,99.23,57.91,57.91,0,0,1,100,104Z"/></g></g></svg>